<svg version="1.1" viewBox="0.0 0.0 500.0 500.0" fill="none" stroke="none" stroke-linecap="square" stroke-miterlimit="10" xmlns:xlink="http://www.w3.org/1999/xlink" xmlns="http://www.w3.org/2000/svg"><clipPath id="p.0"><path d="m0 0l500.0 0l0 500.0l-500.0 0l0 -500.0z" clip-rule="nonzero"/></clipPath><g clip-path="url(#p.0)"><path fill="#000000" fill-opacity="0.0" d="m0 0l500.0 0l0 500.0l-500.0 0z" fill-rule="evenodd"/><path fill="#000000" fill-opacity="0.0" d="m24.88189 249.99869l97.519684 -195.03928l255.19684 0l97.519684 195.03928l-97.519684 195.03928l-255.19684 0z" fill-rule="evenodd"/><path stroke="#3f00ff" stroke-width="16.0" stroke-linejoin="round" stroke-linecap="butt" d="m24.88189 249.99869l97.519684 -195.03928l255.19684 0l97.519684 195.03928l-97.519684 195.03928l-255.19684 0z" fill-rule="evenodd"/><path fill="#3f00ff" d="m295.72504 89.393295c-2.682251 -3.0371857 -6.6097717 -1.5185928 -12.070404 3.4168396c-5.460663 4.93544 -11.688202 11.105095 -20.69342 26.19577c-9.005203 15.090683 -24.332916 50.396805 -33.337875 64.3483c-9.004974 13.951477 -8.142136 17.177765 -20.691925 19.360626c-12.549805 2.1828613 -36.02159 -2.7518463 -54.606842 -6.2634735c-18.58525 -3.5116272 -44.738297 -12.718231 -56.904633 -14.806305c-12.166344 -2.0880737 -13.89006 -0.7592926 -16.0934 2.277893c-2.2033386 3.0371857 -1.3417282 9.871109 2.873352 15.945251c4.2150726 6.0741425 9.580032 12.052765 22.417107 20.499588c12.837082 8.446823 42.72631 22.493576 54.60537 30.18135c11.879059 7.6877747 13.794861 9.965912 16.668945 15.945251c2.8740845 5.9793396 4.5033417 10.819733 0.57554626 19.930817c-3.9277802 9.1111145 -18.298447 26.478699 -24.142288 34.735687c-5.8438416 8.257019 -7.663727 9.301422 -10.920776 14.806305c-3.2570496 5.5049133 -6.4181824 11.579529 -8.621521 18.223145c-2.2033386 6.6436157 -4.598526 14.520477 -4.598526 21.63855c0 7.118042 1.7246857 17.937775 4.598526 21.069763c2.8738403 3.1319885 4.5016327 5.029999 12.644501 -2.277893c8.142868 -7.3078613 25.578964 -30.844635 36.212708 -41.569366c10.633743 -10.724701 18.584503 -17.653656 27.589722 -22.77893c9.0052185 -5.125244 17.723633 -8.826935 26.441559 -7.9726257c8.717926 0.8543396 15.328201 3.7026672 25.866013 13.098633c10.537811 9.395935 27.206268 32.83719 37.36087 43.27704c10.154602 10.43988 16.4776 15.091156 23.566742 19.362091c7.0891724 4.270935 14.657227 6.453308 18.9682 6.263489c4.3110046 -0.18981934 6.2270813 -2.3724365 6.897827 -7.4024353c0.67071533 -5.0299683 -1.0532227 -15.4696045 -2.873352 -22.777466c-1.8201294 -7.307892 -2.4908752 -7.307892 -8.047455 -21.069794c-5.556549 -13.761902 -20.789307 -48.78366 -25.2919 -61.501648c-4.5026245 -12.717987 -4.2145996 -10.345551 -1.7237244 -14.806305c2.4908752 -4.4607544 0.47888184 -6.548584 16.668945 -11.958191c16.190063 -5.4096375 63.706512 -15.659195 80.471375 -20.499603c16.764862 -4.840393 17.052155 -5.600662 20.117859 -8.542816c3.0656738 -2.942154 2.0124512 -5.978134 -1.7237244 -9.110123c-3.736206 -3.1319733 -9.101624 -7.688492 -20.69339 -9.681763c-11.591766 -1.9932861 -35.15802 -2.277893 -48.85721 -2.277893c-13.699188 0 -23.949463 2.3726807 -33.33789 2.277893c-9.388428 -0.09480286 -17.053131 -1.0434418 -22.992676 -2.8466492c-5.939514 -1.8032074 -9.96225 -3.4170837 -12.644501 -7.9726257c-2.6822205 -4.555542 -5.1730957 -3.5108948 -3.448883 -19.360626c1.7242126 -15.849731 12.165588 -59.50814 13.794128 -75.73776c1.6285095 -16.229622 -1.3407593 -18.60279 -4.0229797 -21.639984z" fill-rule="evenodd"/><path stroke="#3f00ff" stroke-width="24.0" stroke-linejoin="round" stroke-linecap="butt" d="m295.72504 89.393295c-2.682251 -3.0371857 -6.6097717 -1.5185928 -12.070404 3.4168396c-5.460663 4.93544 -11.688202 11.105095 -20.69342 26.19577c-9.005203 15.090683 -24.332916 50.396805 -33.337875 64.3483c-9.004974 13.951477 -8.142136 17.177765 -20.691925 19.360626c-12.549805 2.1828613 -36.02159 -2.7518463 -54.606842 -6.2634735c-18.58525 -3.5116272 -44.738297 -12.718231 -56.904633 -14.806305c-12.166344 -2.0880737 -13.89006 -0.7592926 -16.0934 2.277893c-2.2033386 3.0371857 -1.3417282 9.871109 2.873352 15.945251c4.2150726 6.0741425 9.580032 12.052765 22.417107 20.499588c12.837082 8.446823 42.72631 22.493576 54.60537 30.18135c11.879059 7.6877747 13.794861 9.965912 16.668945 15.945251c2.8740845 5.9793396 4.5033417 10.819733 0.57554626 19.930817c-3.9277802 9.1111145 -18.298447 26.478699 -24.142288 34.735687c-5.8438416 8.257019 -7.663727 9.301422 -10.920776 14.806305c-3.2570496 5.5049133 -6.4181824 11.579529 -8.621521 18.223145c-2.2033386 6.6436157 -4.598526 14.520477 -4.598526 21.63855c0 7.118042 1.7246857 17.937775 4.598526 21.069763c2.8738403 3.1319885 4.5016327 5.029999 12.644501 -2.277893c8.142868 -7.3078613 25.578964 -30.844635 36.212708 -41.569366c10.633743 -10.724701 18.584503 -17.653656 27.589722 -22.77893c9.0052185 -5.125244 17.723633 -8.826935 26.441559 -7.9726257c8.717926 0.8543396 15.328201 3.7026672 25.866013 13.098633c10.537811 9.395935 27.206268 32.83719 37.36087 43.27704c10.154602 10.43988 16.4776 15.091156 23.566742 19.362091c7.0891724 4.270935 14.657227 6.453308 18.9682 6.263489c4.3110046 -0.18981934 6.2270813 -2.3724365 6.897827 -7.4024353c0.67071533 -5.0299683 -1.0532227 -15.4696045 -2.873352 -22.777466c-1.8201294 -7.307892 -2.4908752 -7.307892 -8.047455 -21.069794c-5.556549 -13.761902 -20.789307 -48.78366 -25.2919 -61.501648c-4.5026245 -12.717987 -4.2145996 -10.345551 -1.7237244 -14.806305c2.4908752 -4.4607544 0.47888184 -6.548584 16.668945 -11.958191c16.190063 -5.4096375 63.706512 -15.659195 80.471375 -20.499603c16.764862 -4.840393 17.052155 -5.600662 20.117859 -8.542816c3.0656738 -2.942154 2.0124512 -5.978134 -1.7237244 -9.110123c-3.736206 -3.1319733 -9.101624 -7.688492 -20.69339 -9.681763c-11.591766 -1.9932861 -35.15802 -2.277893 -48.85721 -2.277893c-13.699188 0 -23.949463 2.3726807 -33.33789 2.277893c-9.388428 -0.09480286 -17.053131 -1.0434418 -22.992676 -2.8466492c-5.939514 -1.8032074 -9.96225 -3.4170837 -12.644501 -7.9726257c-2.6822205 -4.555542 -5.1730957 -3.5108948 -3.448883 -19.360626c1.7242126 -15.849731 12.165588 -59.50814 13.794128 -75.73776c1.6285095 -16.229622 -1.3407593 -18.60279 -4.0229797 -21.639984z" fill-rule="evenodd"/></g></svg>